# xmcd CD database file
#
# Track frame offsets:
#	150
#	16810
#	30627
#	48800
#	70375
#	84687
#	103077
#	121767
#	138172
#	157200
#	181965
#
# Disc length: 2690 seconds
#
# Revision: 0
# Processed by: cddbd v1.5.1PL0 Copyright (c) Steve Scherf et al.
# Submitted via: CDex 1.51
#
DISCID=8b0a800b
DTITLE=相曽晴日 - Intrigue
DYEAR=1985
DGENRE=JPop
TTITLE0=飛行機のイヤリング
TTITLE1=デジタルの涙
TTITLE2=窓辺のプリズム
TTITLE3=愛になりたい
TTITLE4=七分の一のパ・ド・ドゥ
TTITLE5=男と女で
TTITLE6=星屑のジ・エンド
TTITLE7=海が見たくて
TTITLE8=引き出しからの銀星
TTITLE9=それぞれの迷宮
TTITLE10=舞(第２２回ポプコン本選会ライブバージョン)
EXTD=YEAR: 1985
EXTT0=
EXTT1=
EXTT2=
EXTT3=
EXTT4=
EXTT5=
EXTT6=
EXTT7=
EXTT8=
EXTT9=
EXTT10=
PLAYORDER=
